<mxfile host="app.diagrams.net" agent="Mozilla/5.0 (Windows NT 10.0; Win64; x64) AppleWebKit/537.36 (KHTML, like Gecko) Chrome/130.0.0.0 Safari/537.36" version="24.8.4">
  <diagram name="1 oldal" id="_w2Nl1S-omTzUJ2AkO-f">
    <mxGraphModel dx="2074" dy="649" grid="1" gridSize="10" guides="1" tooltips="1" connect="1" arrows="1" fold="1" page="1" pageScale="1" pageWidth="827" pageHeight="1169" math="0" shadow="0">
      <root>
        <mxCell id="0" />
        <mxCell id="1" parent="0" />
        <mxCell id="fDUWHi4UE-YvZa-yy9O_-1" value="Felhasználók" style="rounded=0;whiteSpace=wrap;html=1;" vertex="1" parent="1">
          <mxGeometry x="210" y="140" width="110" height="40" as="geometry" />
        </mxCell>
        <mxCell id="fDUWHi4UE-YvZa-yy9O_-2" value="&lt;u&gt;felhasználó ID&lt;/u&gt;" style="ellipse;whiteSpace=wrap;html=1;" vertex="1" parent="1">
          <mxGeometry x="20" y="30" width="100" height="40" as="geometry" />
        </mxCell>
        <mxCell id="fDUWHi4UE-YvZa-yy9O_-3" value="fnev" style="ellipse;whiteSpace=wrap;html=1;" vertex="1" parent="1">
          <mxGeometry x="20" y="90" width="100" height="40" as="geometry" />
        </mxCell>
        <mxCell id="fDUWHi4UE-YvZa-yy9O_-4" value="jelszó" style="ellipse;whiteSpace=wrap;html=1;" vertex="1" parent="1">
          <mxGeometry x="20" y="150" width="100" height="40" as="geometry" />
        </mxCell>
        <mxCell id="fDUWHi4UE-YvZa-yy9O_-141" style="edgeStyle=orthogonalEdgeStyle;rounded=0;orthogonalLoop=1;jettySize=auto;html=1;exitX=0;exitY=0.5;exitDx=0;exitDy=0;entryX=0;entryY=0;entryDx=0;entryDy=0;" edge="1" parent="1" source="fDUWHi4UE-YvZa-yy9O_-6" target="fDUWHi4UE-YvZa-yy9O_-111">
          <mxGeometry relative="1" as="geometry" />
        </mxCell>
        <mxCell id="fDUWHi4UE-YvZa-yy9O_-6" value="e-mail&lt;span style=&quot;color: rgba(0, 0, 0, 0); font-family: monospace; font-size: 0px; text-align: start; text-wrap-mode: nowrap;&quot;&gt;%3CmxGraphModel%3E%3Croot%3E%3CmxCell%20id%3D%220%22%2F%3E%3CmxCell%20id%3D%221%22%20parent%3D%220%22%2F%3E%3CmxCell%20id%3D%222%22%20value%3D%22felhaszn%C3%A1l%C3%B3%20ID%22%20style%3D%22ellipse%3BwhiteSpace%3Dwrap%3Bhtml%3D1%3B%22%20vertex%3D%221%22%20parent%3D%221%22%3E%3CmxGeometry%20x%3D%2220%22%20y%3D%22150%22%20width%3D%22100%22%20height%3D%2240%22%20as%3D%22geometry%22%2F%3E%3C%2FmxCell%3E%3C%2Froot%3E%3C%2FmxGraphModel%3E&lt;/span&gt;" style="ellipse;whiteSpace=wrap;html=1;" vertex="1" parent="1">
          <mxGeometry x="20" y="200" width="100" height="40" as="geometry" />
        </mxCell>
        <mxCell id="fDUWHi4UE-YvZa-yy9O_-138" style="edgeStyle=orthogonalEdgeStyle;rounded=0;orthogonalLoop=1;jettySize=auto;html=1;exitX=1;exitY=1;exitDx=0;exitDy=0;entryX=0;entryY=0.5;entryDx=0;entryDy=0;" edge="1" parent="1" source="fDUWHi4UE-YvZa-yy9O_-7" target="fDUWHi4UE-YvZa-yy9O_-111">
          <mxGeometry relative="1" as="geometry" />
        </mxCell>
        <mxCell id="fDUWHi4UE-YvZa-yy9O_-140" style="edgeStyle=orthogonalEdgeStyle;rounded=0;orthogonalLoop=1;jettySize=auto;html=1;exitX=1;exitY=0.5;exitDx=0;exitDy=0;entryX=1;entryY=0;entryDx=0;entryDy=0;" edge="1" parent="1" source="fDUWHi4UE-YvZa-yy9O_-7" target="fDUWHi4UE-YvZa-yy9O_-91">
          <mxGeometry relative="1" as="geometry" />
        </mxCell>
        <mxCell id="fDUWHi4UE-YvZa-yy9O_-7" value="telefonszam" style="ellipse;whiteSpace=wrap;html=1;" vertex="1" parent="1">
          <mxGeometry x="20" y="250" width="100" height="40" as="geometry" />
        </mxCell>
        <mxCell id="fDUWHi4UE-YvZa-yy9O_-8" value="" style="endArrow=none;html=1;rounded=0;exitX=1;exitY=0.5;exitDx=0;exitDy=0;entryX=0;entryY=0.5;entryDx=0;entryDy=0;" edge="1" parent="1" source="fDUWHi4UE-YvZa-yy9O_-2" target="fDUWHi4UE-YvZa-yy9O_-1">
          <mxGeometry width="50" height="50" relative="1" as="geometry">
            <mxPoint x="160" y="210" as="sourcePoint" />
            <mxPoint x="210" y="160" as="targetPoint" />
          </mxGeometry>
        </mxCell>
        <mxCell id="fDUWHi4UE-YvZa-yy9O_-9" value="" style="endArrow=none;html=1;rounded=0;exitX=1;exitY=0.5;exitDx=0;exitDy=0;entryX=0;entryY=0.5;entryDx=0;entryDy=0;" edge="1" parent="1" source="fDUWHi4UE-YvZa-yy9O_-3" target="fDUWHi4UE-YvZa-yy9O_-1">
          <mxGeometry width="50" height="50" relative="1" as="geometry">
            <mxPoint x="160" y="210" as="sourcePoint" />
            <mxPoint x="210" y="160" as="targetPoint" />
          </mxGeometry>
        </mxCell>
        <mxCell id="fDUWHi4UE-YvZa-yy9O_-10" value="" style="endArrow=none;html=1;rounded=0;exitX=1;exitY=0.5;exitDx=0;exitDy=0;entryX=0;entryY=0.5;entryDx=0;entryDy=0;" edge="1" parent="1" source="fDUWHi4UE-YvZa-yy9O_-4" target="fDUWHi4UE-YvZa-yy9O_-1">
          <mxGeometry width="50" height="50" relative="1" as="geometry">
            <mxPoint x="160" y="210" as="sourcePoint" />
            <mxPoint x="200" y="160" as="targetPoint" />
          </mxGeometry>
        </mxCell>
        <mxCell id="fDUWHi4UE-YvZa-yy9O_-11" value="" style="endArrow=none;html=1;rounded=0;exitX=1;exitY=0.5;exitDx=0;exitDy=0;entryX=0;entryY=0.5;entryDx=0;entryDy=0;" edge="1" parent="1" source="fDUWHi4UE-YvZa-yy9O_-6" target="fDUWHi4UE-YvZa-yy9O_-1">
          <mxGeometry width="50" height="50" relative="1" as="geometry">
            <mxPoint x="160" y="210" as="sourcePoint" />
            <mxPoint x="190" y="170" as="targetPoint" />
          </mxGeometry>
        </mxCell>
        <mxCell id="fDUWHi4UE-YvZa-yy9O_-12" value="" style="endArrow=none;html=1;rounded=0;entryX=0;entryY=0.5;entryDx=0;entryDy=0;exitX=1;exitY=0.5;exitDx=0;exitDy=0;" edge="1" parent="1" source="fDUWHi4UE-YvZa-yy9O_-7" target="fDUWHi4UE-YvZa-yy9O_-1">
          <mxGeometry width="50" height="50" relative="1" as="geometry">
            <mxPoint x="160" y="280" as="sourcePoint" />
            <mxPoint x="210" y="230" as="targetPoint" />
          </mxGeometry>
        </mxCell>
        <mxCell id="fDUWHi4UE-YvZa-yy9O_-14" value="" style="endArrow=none;html=1;rounded=0;exitX=1;exitY=0.5;exitDx=0;exitDy=0;entryX=0;entryY=0.5;entryDx=0;entryDy=0;" edge="1" parent="1" source="fDUWHi4UE-YvZa-yy9O_-1">
          <mxGeometry width="50" height="50" relative="1" as="geometry">
            <mxPoint x="390" y="320" as="sourcePoint" />
            <mxPoint x="400" y="160" as="targetPoint" />
          </mxGeometry>
        </mxCell>
        <mxCell id="fDUWHi4UE-YvZa-yy9O_-16" value="Rendelések" style="rounded=0;whiteSpace=wrap;html=1;" vertex="1" parent="1">
          <mxGeometry x="560" y="140" width="110" height="40" as="geometry" />
        </mxCell>
        <mxCell id="fDUWHi4UE-YvZa-yy9O_-17" value="" style="endArrow=none;html=1;rounded=0;exitX=0;exitY=0.5;exitDx=0;exitDy=0;entryX=1;entryY=0.5;entryDx=0;entryDy=0;" edge="1" parent="1" source="fDUWHi4UE-YvZa-yy9O_-16">
          <mxGeometry width="50" height="50" relative="1" as="geometry">
            <mxPoint x="390" y="320" as="sourcePoint" />
            <mxPoint x="500" y="160" as="targetPoint" />
          </mxGeometry>
        </mxCell>
        <mxCell id="fDUWHi4UE-YvZa-yy9O_-20" value="&lt;u&gt;rendelés ID&lt;/u&gt;" style="ellipse;whiteSpace=wrap;html=1;" vertex="1" parent="1">
          <mxGeometry x="600" width="100" height="40" as="geometry" />
        </mxCell>
        <mxCell id="fDUWHi4UE-YvZa-yy9O_-22" value="szálítási cím" style="ellipse;whiteSpace=wrap;html=1;" vertex="1" parent="1">
          <mxGeometry x="797" y="90" width="100" height="40" as="geometry" />
        </mxCell>
        <mxCell id="fDUWHi4UE-YvZa-yy9O_-23" value="fizetési forma" style="ellipse;whiteSpace=wrap;html=1;" vertex="1" parent="1">
          <mxGeometry x="790" y="160" width="100" height="40" as="geometry" />
        </mxCell>
        <mxCell id="fDUWHi4UE-YvZa-yy9O_-24" value="részösszeg" style="ellipse;whiteSpace=wrap;html=1;" vertex="1" parent="1">
          <mxGeometry x="710" y="240" width="100" height="40" as="geometry" />
        </mxCell>
        <mxCell id="fDUWHi4UE-YvZa-yy9O_-25" value="szállítási díj" style="ellipse;whiteSpace=wrap;html=1;" vertex="1" parent="1">
          <mxGeometry x="414" y="240" width="100" height="40" as="geometry" />
        </mxCell>
        <mxCell id="fDUWHi4UE-YvZa-yy9O_-26" value="fizetendő összeg" style="ellipse;whiteSpace=wrap;html=1;" vertex="1" parent="1">
          <mxGeometry x="600" y="240" width="100" height="40" as="geometry" />
        </mxCell>
        <mxCell id="fDUWHi4UE-YvZa-yy9O_-28" value="" style="endArrow=none;html=1;rounded=0;exitX=0;exitY=1;exitDx=0;exitDy=0;entryX=0.62;entryY=0.025;entryDx=0;entryDy=0;entryPerimeter=0;" edge="1" parent="1" source="fDUWHi4UE-YvZa-yy9O_-16" target="fDUWHi4UE-YvZa-yy9O_-25">
          <mxGeometry width="50" height="50" relative="1" as="geometry">
            <mxPoint x="390" y="320" as="sourcePoint" />
            <mxPoint x="440" y="270" as="targetPoint" />
          </mxGeometry>
        </mxCell>
        <mxCell id="fDUWHi4UE-YvZa-yy9O_-29" value="" style="endArrow=none;html=1;rounded=0;exitX=0.5;exitY=0;exitDx=0;exitDy=0;entryX=0.5;entryY=1;entryDx=0;entryDy=0;" edge="1" parent="1" source="fDUWHi4UE-YvZa-yy9O_-26" target="fDUWHi4UE-YvZa-yy9O_-16">
          <mxGeometry width="50" height="50" relative="1" as="geometry">
            <mxPoint x="580" y="230" as="sourcePoint" />
            <mxPoint x="610" y="200" as="targetPoint" />
          </mxGeometry>
        </mxCell>
        <mxCell id="fDUWHi4UE-YvZa-yy9O_-31" value="" style="endArrow=none;html=1;rounded=0;entryX=1;entryY=1;entryDx=0;entryDy=0;exitX=0.5;exitY=0;exitDx=0;exitDy=0;" edge="1" parent="1" source="fDUWHi4UE-YvZa-yy9O_-24" target="fDUWHi4UE-YvZa-yy9O_-16">
          <mxGeometry width="50" height="50" relative="1" as="geometry">
            <mxPoint x="625" y="245" as="sourcePoint" />
            <mxPoint x="675" y="195" as="targetPoint" />
          </mxGeometry>
        </mxCell>
        <mxCell id="fDUWHi4UE-YvZa-yy9O_-32" value="" style="endArrow=none;html=1;rounded=0;exitX=1;exitY=0.5;exitDx=0;exitDy=0;entryX=0;entryY=0.5;entryDx=0;entryDy=0;" edge="1" parent="1" source="fDUWHi4UE-YvZa-yy9O_-16" target="fDUWHi4UE-YvZa-yy9O_-23">
          <mxGeometry width="50" height="50" relative="1" as="geometry">
            <mxPoint x="670" y="210" as="sourcePoint" />
            <mxPoint x="720" y="160" as="targetPoint" />
          </mxGeometry>
        </mxCell>
        <mxCell id="fDUWHi4UE-YvZa-yy9O_-33" value="" style="endArrow=none;html=1;rounded=0;exitX=1;exitY=0.5;exitDx=0;exitDy=0;entryX=0;entryY=0.5;entryDx=0;entryDy=0;" edge="1" parent="1" source="fDUWHi4UE-YvZa-yy9O_-16" target="fDUWHi4UE-YvZa-yy9O_-22">
          <mxGeometry width="50" height="50" relative="1" as="geometry">
            <mxPoint x="677" y="180" as="sourcePoint" />
            <mxPoint x="727" y="130" as="targetPoint" />
          </mxGeometry>
        </mxCell>
        <mxCell id="fDUWHi4UE-YvZa-yy9O_-34" value="" style="endArrow=none;html=1;rounded=0;exitX=1;exitY=0;exitDx=0;exitDy=0;entryX=0;entryY=0.5;entryDx=0;entryDy=0;" edge="1" parent="1" source="fDUWHi4UE-YvZa-yy9O_-16" target="fDUWHi4UE-YvZa-yy9O_-143">
          <mxGeometry width="50" height="50" relative="1" as="geometry">
            <mxPoint x="670" y="140" as="sourcePoint" />
            <mxPoint x="739.9999999999873" y="60" as="targetPoint" />
          </mxGeometry>
        </mxCell>
        <mxCell id="fDUWHi4UE-YvZa-yy9O_-35" value="" style="endArrow=none;html=1;rounded=0;exitX=0.5;exitY=0;exitDx=0;exitDy=0;entryX=0.5;entryY=1;entryDx=0;entryDy=0;" edge="1" parent="1" source="fDUWHi4UE-YvZa-yy9O_-16" target="fDUWHi4UE-YvZa-yy9O_-20">
          <mxGeometry width="50" height="50" relative="1" as="geometry">
            <mxPoint x="570" y="110" as="sourcePoint" />
            <mxPoint x="620" y="60" as="targetPoint" />
          </mxGeometry>
        </mxCell>
        <mxCell id="fDUWHi4UE-YvZa-yy9O_-37" value="" style="endArrow=none;html=1;rounded=0;exitX=0;exitY=0;exitDx=0;exitDy=0;entryX=0.5;entryY=1;entryDx=0;entryDy=0;" edge="1" parent="1" source="fDUWHi4UE-YvZa-yy9O_-16" target="fDUWHi4UE-YvZa-yy9O_-60">
          <mxGeometry width="50" height="50" relative="1" as="geometry">
            <mxPoint x="530" y="120" as="sourcePoint" />
            <mxPoint x="530" y="40" as="targetPoint" />
          </mxGeometry>
        </mxCell>
        <mxCell id="fDUWHi4UE-YvZa-yy9O_-40" value="Pizza" style="rounded=0;whiteSpace=wrap;html=1;" vertex="1" parent="1">
          <mxGeometry x="930" y="1220" width="110" height="40" as="geometry" />
        </mxCell>
        <mxCell id="fDUWHi4UE-YvZa-yy9O_-52" value="" style="endArrow=none;html=1;rounded=0;exitX=0.5;exitY=0;exitDx=0;exitDy=0;entryX=0.5;entryY=1;entryDx=0;entryDy=0;" edge="1" parent="1" source="fDUWHi4UE-YvZa-yy9O_-68" target="fDUWHi4UE-YvZa-yy9O_-40">
          <mxGeometry width="50" height="50" relative="1" as="geometry">
            <mxPoint x="950" y="1320" as="sourcePoint" />
            <mxPoint x="980" y="1280" as="targetPoint" />
          </mxGeometry>
        </mxCell>
        <mxCell id="fDUWHi4UE-YvZa-yy9O_-53" value="" style="endArrow=none;html=1;rounded=0;entryX=1;entryY=1;entryDx=0;entryDy=0;exitX=0.5;exitY=0;exitDx=0;exitDy=0;" edge="1" parent="1" source="fDUWHi4UE-YvZa-yy9O_-67" target="fDUWHi4UE-YvZa-yy9O_-40">
          <mxGeometry width="50" height="50" relative="1" as="geometry">
            <mxPoint x="1060" y="1320" as="sourcePoint" />
            <mxPoint x="1045" y="1275" as="targetPoint" />
          </mxGeometry>
        </mxCell>
        <mxCell id="fDUWHi4UE-YvZa-yy9O_-54" value="" style="endArrow=none;html=1;rounded=0;exitX=1;exitY=1;exitDx=0;exitDy=0;entryX=0;entryY=0.5;entryDx=0;entryDy=0;" edge="1" parent="1" source="fDUWHi4UE-YvZa-yy9O_-40" target="fDUWHi4UE-YvZa-yy9O_-66">
          <mxGeometry width="50" height="50" relative="1" as="geometry">
            <mxPoint x="1040" y="1290" as="sourcePoint" />
            <mxPoint x="1080" y="1300" as="targetPoint" />
          </mxGeometry>
        </mxCell>
        <mxCell id="fDUWHi4UE-YvZa-yy9O_-55" value="" style="endArrow=none;html=1;rounded=0;exitX=1;exitY=0.5;exitDx=0;exitDy=0;entryX=0;entryY=0.5;entryDx=0;entryDy=0;" edge="1" parent="1" source="fDUWHi4UE-YvZa-yy9O_-40" target="fDUWHi4UE-YvZa-yy9O_-65">
          <mxGeometry width="50" height="50" relative="1" as="geometry">
            <mxPoint x="1047" y="1260" as="sourcePoint" />
            <mxPoint x="1130" y="1240" as="targetPoint" />
          </mxGeometry>
        </mxCell>
        <mxCell id="fDUWHi4UE-YvZa-yy9O_-56" value="" style="endArrow=none;html=1;rounded=0;exitX=1;exitY=0;exitDx=0;exitDy=0;entryX=0;entryY=0.5;entryDx=0;entryDy=0;" edge="1" parent="1" source="fDUWHi4UE-YvZa-yy9O_-40" target="fDUWHi4UE-YvZa-yy9O_-64">
          <mxGeometry width="50" height="50" relative="1" as="geometry">
            <mxPoint x="1040" y="1220" as="sourcePoint" />
            <mxPoint x="1100" y="1200" as="targetPoint" />
          </mxGeometry>
        </mxCell>
        <mxCell id="fDUWHi4UE-YvZa-yy9O_-57" value="" style="endArrow=none;html=1;rounded=0;exitX=1;exitY=0;exitDx=0;exitDy=0;entryX=0.5;entryY=1;entryDx=0;entryDy=0;" edge="1" parent="1" source="fDUWHi4UE-YvZa-yy9O_-40" target="fDUWHi4UE-YvZa-yy9O_-63">
          <mxGeometry width="50" height="50" relative="1" as="geometry">
            <mxPoint x="940" y="1190" as="sourcePoint" />
            <mxPoint x="1060" y="1160" as="targetPoint" />
          </mxGeometry>
        </mxCell>
        <mxCell id="fDUWHi4UE-YvZa-yy9O_-58" value="" style="endArrow=none;html=1;rounded=0;exitX=0.5;exitY=0;exitDx=0;exitDy=0;entryX=0.5;entryY=1;entryDx=0;entryDy=0;" edge="1" parent="1" source="fDUWHi4UE-YvZa-yy9O_-40" target="fDUWHi4UE-YvZa-yy9O_-62">
          <mxGeometry width="50" height="50" relative="1" as="geometry">
            <mxPoint x="960" y="1190" as="sourcePoint" />
            <mxPoint x="1014" y="1120" as="targetPoint" />
          </mxGeometry>
        </mxCell>
        <mxCell id="fDUWHi4UE-YvZa-yy9O_-59" value="" style="endArrow=none;html=1;rounded=0;exitX=0;exitY=0;exitDx=0;exitDy=0;entryX=0.5;entryY=1;entryDx=0;entryDy=0;" edge="1" parent="1" source="fDUWHi4UE-YvZa-yy9O_-40" target="fDUWHi4UE-YvZa-yy9O_-61">
          <mxGeometry width="50" height="50" relative="1" as="geometry">
            <mxPoint x="900" y="1200" as="sourcePoint" />
            <mxPoint x="900" y="1120" as="targetPoint" />
          </mxGeometry>
        </mxCell>
        <mxCell id="fDUWHi4UE-YvZa-yy9O_-60" value="&lt;span style=&quot;border-bottom: 1px dotted&quot;&gt;felhasználó ID&lt;/span&gt;" style="ellipse;whiteSpace=wrap;html=1;align=center;" vertex="1" parent="1">
          <mxGeometry x="480" width="100" height="40" as="geometry" />
        </mxCell>
        <mxCell id="fDUWHi4UE-YvZa-yy9O_-61" value="&lt;u&gt;termek ID&lt;/u&gt;" style="ellipse;whiteSpace=wrap;html=1;align=center;" vertex="1" parent="1">
          <mxGeometry x="750" y="1110" width="100" height="40" as="geometry" />
        </mxCell>
        <mxCell id="fDUWHi4UE-YvZa-yy9O_-62" value="termék név" style="ellipse;whiteSpace=wrap;html=1;align=center;" vertex="1" parent="1">
          <mxGeometry x="850" y="1070" width="100" height="40" as="geometry" />
        </mxCell>
        <mxCell id="fDUWHi4UE-YvZa-yy9O_-63" value="termék leírás" style="ellipse;whiteSpace=wrap;html=1;align=center;" vertex="1" parent="1">
          <mxGeometry x="960" y="1060" width="100" height="40" as="geometry" />
        </mxCell>
        <mxCell id="fDUWHi4UE-YvZa-yy9O_-64" value="méret" style="ellipse;whiteSpace=wrap;html=1;align=center;" vertex="1" parent="1">
          <mxGeometry x="1150" y="1140" width="100" height="40" as="geometry" />
        </mxCell>
        <mxCell id="fDUWHi4UE-YvZa-yy9O_-65" value="héj" style="ellipse;whiteSpace=wrap;html=1;align=center;" vertex="1" parent="1">
          <mxGeometry x="1164" y="1220" width="100" height="40" as="geometry" />
        </mxCell>
        <mxCell id="fDUWHi4UE-YvZa-yy9O_-66" value="szósz" style="ellipse;whiteSpace=wrap;html=1;align=center;" vertex="1" parent="1">
          <mxGeometry x="1164" y="1284.5" width="100" height="40" as="geometry" />
        </mxCell>
        <mxCell id="fDUWHi4UE-YvZa-yy9O_-67" value="sajt" style="ellipse;whiteSpace=wrap;html=1;align=center;" vertex="1" parent="1">
          <mxGeometry x="1050" y="1350" width="100" height="40" as="geometry" />
        </mxCell>
        <mxCell id="fDUWHi4UE-YvZa-yy9O_-68" value="feltétek" style="ellipse;whiteSpace=wrap;html=1;align=center;" vertex="1" parent="1">
          <mxGeometry x="920" y="1350" width="100" height="40" as="geometry" />
        </mxCell>
        <mxCell id="fDUWHi4UE-YvZa-yy9O_-69" value="extrák" style="ellipse;whiteSpace=wrap;html=1;align=center;" vertex="1" parent="1">
          <mxGeometry x="770" y="1330" width="100" height="40" as="geometry" />
        </mxCell>
        <mxCell id="fDUWHi4UE-YvZa-yy9O_-70" value="" style="endArrow=none;html=1;rounded=0;entryX=0;entryY=1;entryDx=0;entryDy=0;exitX=0.5;exitY=0;exitDx=0;exitDy=0;" edge="1" parent="1" source="fDUWHi4UE-YvZa-yy9O_-69" target="fDUWHi4UE-YvZa-yy9O_-40">
          <mxGeometry width="50" height="50" relative="1" as="geometry">
            <mxPoint x="930" y="1325" as="sourcePoint" />
            <mxPoint x="980" y="1275" as="targetPoint" />
          </mxGeometry>
        </mxCell>
        <mxCell id="fDUWHi4UE-YvZa-yy9O_-72" value="termék ára" style="ellipse;whiteSpace=wrap;html=1;align=center;" vertex="1" parent="1">
          <mxGeometry x="1090" y="1060" width="100" height="40" as="geometry" />
        </mxCell>
        <mxCell id="fDUWHi4UE-YvZa-yy9O_-73" value="" style="endArrow=none;html=1;rounded=0;exitX=1;exitY=0;exitDx=0;exitDy=0;entryX=0.5;entryY=1;entryDx=0;entryDy=0;" edge="1" parent="1" source="fDUWHi4UE-YvZa-yy9O_-40" target="fDUWHi4UE-YvZa-yy9O_-72">
          <mxGeometry width="50" height="50" relative="1" as="geometry">
            <mxPoint x="1070" y="1195" as="sourcePoint" />
            <mxPoint x="1120" y="1145" as="targetPoint" />
          </mxGeometry>
        </mxCell>
        <mxCell id="fDUWHi4UE-YvZa-yy9O_-91" value="Asztal foglalások" style="rounded=0;whiteSpace=wrap;html=1;" vertex="1" parent="1">
          <mxGeometry x="1035" y="700" width="110" height="40" as="geometry" />
        </mxCell>
        <mxCell id="fDUWHi4UE-YvZa-yy9O_-95" value="érkezés dátuma" style="ellipse;whiteSpace=wrap;html=1;" vertex="1" parent="1">
          <mxGeometry x="1257" y="640" width="100" height="40" as="geometry" />
        </mxCell>
        <mxCell id="fDUWHi4UE-YvZa-yy9O_-96" value="érkezés ideje" style="ellipse;whiteSpace=wrap;html=1;" vertex="1" parent="1">
          <mxGeometry x="1257" y="730" width="100" height="40" as="geometry" />
        </mxCell>
        <mxCell id="fDUWHi4UE-YvZa-yy9O_-97" value="maradás ideje" style="ellipse;whiteSpace=wrap;html=1;" vertex="1" parent="1">
          <mxGeometry x="1207" y="800" width="100" height="40" as="geometry" />
        </mxCell>
        <mxCell id="fDUWHi4UE-YvZa-yy9O_-98" value="vendégek száma" style="ellipse;whiteSpace=wrap;html=1;" vertex="1" parent="1">
          <mxGeometry x="1037" y="800" width="100" height="40" as="geometry" />
        </mxCell>
        <mxCell id="fDUWHi4UE-YvZa-yy9O_-99" value="asztal igény megjegyzés" style="ellipse;whiteSpace=wrap;html=1;" vertex="1" parent="1">
          <mxGeometry x="1060" y="540" width="100" height="40" as="geometry" />
        </mxCell>
        <mxCell id="fDUWHi4UE-YvZa-yy9O_-100" value="megjegyzés" style="ellipse;whiteSpace=wrap;html=1;" vertex="1" parent="1">
          <mxGeometry x="897" y="795" width="100" height="40" as="geometry" />
        </mxCell>
        <mxCell id="fDUWHi4UE-YvZa-yy9O_-101" value="" style="endArrow=none;html=1;rounded=0;exitX=0.5;exitY=0;exitDx=0;exitDy=0;entryX=0.5;entryY=1;entryDx=0;entryDy=0;" edge="1" parent="1" source="fDUWHi4UE-YvZa-yy9O_-91" target="fDUWHi4UE-YvZa-yy9O_-99">
          <mxGeometry width="50" height="50" relative="1" as="geometry">
            <mxPoint x="860" y="880" as="sourcePoint" />
            <mxPoint x="947" y="750" as="targetPoint" />
          </mxGeometry>
        </mxCell>
        <mxCell id="fDUWHi4UE-YvZa-yy9O_-102" value="" style="endArrow=none;html=1;rounded=0;exitX=0.99;exitY=0.325;exitDx=0;exitDy=0;entryX=0;entryY=1;entryDx=0;entryDy=0;exitPerimeter=0;" edge="1" parent="1" source="fDUWHi4UE-YvZa-yy9O_-100" target="fDUWHi4UE-YvZa-yy9O_-91">
          <mxGeometry width="50" height="50" relative="1" as="geometry">
            <mxPoint x="1050" y="790" as="sourcePoint" />
            <mxPoint x="1080" y="760" as="targetPoint" />
          </mxGeometry>
        </mxCell>
        <mxCell id="fDUWHi4UE-YvZa-yy9O_-103" value="" style="endArrow=none;html=1;rounded=0;entryX=0.5;entryY=1;entryDx=0;entryDy=0;exitX=0.5;exitY=0;exitDx=0;exitDy=0;" edge="1" parent="1" source="fDUWHi4UE-YvZa-yy9O_-98" target="fDUWHi4UE-YvZa-yy9O_-91">
          <mxGeometry width="50" height="50" relative="1" as="geometry">
            <mxPoint x="1095" y="805" as="sourcePoint" />
            <mxPoint x="1145" y="755" as="targetPoint" />
          </mxGeometry>
        </mxCell>
        <mxCell id="fDUWHi4UE-YvZa-yy9O_-104" value="" style="endArrow=none;html=1;rounded=0;exitX=1;exitY=1;exitDx=0;exitDy=0;entryX=0;entryY=0.5;entryDx=0;entryDy=0;" edge="1" parent="1" source="fDUWHi4UE-YvZa-yy9O_-91" target="fDUWHi4UE-YvZa-yy9O_-97">
          <mxGeometry width="50" height="50" relative="1" as="geometry">
            <mxPoint x="1140" y="770" as="sourcePoint" />
            <mxPoint x="1190" y="720" as="targetPoint" />
          </mxGeometry>
        </mxCell>
        <mxCell id="fDUWHi4UE-YvZa-yy9O_-105" value="" style="endArrow=none;html=1;rounded=0;exitX=1;exitY=0.5;exitDx=0;exitDy=0;entryX=0;entryY=0.5;entryDx=0;entryDy=0;" edge="1" parent="1" source="fDUWHi4UE-YvZa-yy9O_-91" target="fDUWHi4UE-YvZa-yy9O_-96">
          <mxGeometry width="50" height="50" relative="1" as="geometry">
            <mxPoint x="1147" y="740" as="sourcePoint" />
            <mxPoint x="1197" y="690" as="targetPoint" />
          </mxGeometry>
        </mxCell>
        <mxCell id="fDUWHi4UE-YvZa-yy9O_-106" value="" style="endArrow=none;html=1;rounded=0;exitX=1;exitY=0.5;exitDx=0;exitDy=0;entryX=0;entryY=0.5;entryDx=0;entryDy=0;" edge="1" parent="1" source="fDUWHi4UE-YvZa-yy9O_-91" target="fDUWHi4UE-YvZa-yy9O_-95">
          <mxGeometry width="50" height="50" relative="1" as="geometry">
            <mxPoint x="1140" y="700" as="sourcePoint" />
            <mxPoint x="1170" y="660" as="targetPoint" />
          </mxGeometry>
        </mxCell>
        <mxCell id="fDUWHi4UE-YvZa-yy9O_-109" value="" style="endArrow=none;html=1;rounded=0;exitX=0;exitY=0;exitDx=0;exitDy=0;entryX=0.5;entryY=1;entryDx=0;entryDy=0;" edge="1" parent="1" source="fDUWHi4UE-YvZa-yy9O_-91" target="fDUWHi4UE-YvZa-yy9O_-110">
          <mxGeometry width="50" height="50" relative="1" as="geometry">
            <mxPoint x="1000" y="680" as="sourcePoint" />
            <mxPoint x="1000" y="600" as="targetPoint" />
          </mxGeometry>
        </mxCell>
        <mxCell id="fDUWHi4UE-YvZa-yy9O_-110" value="&lt;span style=&quot;border-bottom: 1px dotted&quot;&gt;fnev&lt;/span&gt;" style="ellipse;whiteSpace=wrap;html=1;align=center;" vertex="1" parent="1">
          <mxGeometry x="920" y="540" width="100" height="40" as="geometry" />
        </mxCell>
        <mxCell id="fDUWHi4UE-YvZa-yy9O_-111" value="Kapcsolat" style="rounded=0;whiteSpace=wrap;html=1;" vertex="1" parent="1">
          <mxGeometry x="370" y="720" width="110" height="40" as="geometry" />
        </mxCell>
        <mxCell id="fDUWHi4UE-YvZa-yy9O_-115" value="tárgy" style="ellipse;whiteSpace=wrap;html=1;" vertex="1" parent="1">
          <mxGeometry x="564" y="820" width="100" height="40" as="geometry" />
        </mxCell>
        <mxCell id="fDUWHi4UE-YvZa-yy9O_-116" value="üzenet" style="ellipse;whiteSpace=wrap;html=1;" vertex="1" parent="1">
          <mxGeometry x="164" y="830" width="100" height="40" as="geometry" />
        </mxCell>
        <mxCell id="fDUWHi4UE-YvZa-yy9O_-119" value="" style="endArrow=none;html=1;rounded=0;exitX=0.5;exitY=0;exitDx=0;exitDy=0;entryX=0.5;entryY=1;entryDx=0;entryDy=0;" edge="1" parent="1" source="fDUWHi4UE-YvZa-yy9O_-122" target="fDUWHi4UE-YvZa-yy9O_-111">
          <mxGeometry width="50" height="50" relative="1" as="geometry">
            <mxPoint x="409" y="610" as="sourcePoint" />
            <mxPoint x="344" y="720" as="targetPoint" />
          </mxGeometry>
        </mxCell>
        <mxCell id="fDUWHi4UE-YvZa-yy9O_-120" value="" style="endArrow=none;html=1;rounded=0;exitX=0;exitY=0.5;exitDx=0;exitDy=0;entryX=1;entryY=1;entryDx=0;entryDy=0;" edge="1" parent="1" source="fDUWHi4UE-YvZa-yy9O_-115" target="fDUWHi4UE-YvZa-yy9O_-111">
          <mxGeometry width="50" height="50" relative="1" as="geometry">
            <mxPoint x="304" y="770" as="sourcePoint" />
            <mxPoint x="334" y="730" as="targetPoint" />
          </mxGeometry>
        </mxCell>
        <mxCell id="fDUWHi4UE-YvZa-yy9O_-121" value="" style="endArrow=none;html=1;rounded=0;entryX=0;entryY=1;entryDx=0;entryDy=0;exitX=1;exitY=0.5;exitDx=0;exitDy=0;" edge="1" parent="1" source="fDUWHi4UE-YvZa-yy9O_-116" target="fDUWHi4UE-YvZa-yy9O_-111">
          <mxGeometry width="50" height="50" relative="1" as="geometry">
            <mxPoint x="304" y="840" as="sourcePoint" />
            <mxPoint x="354" y="790" as="targetPoint" />
          </mxGeometry>
        </mxCell>
        <mxCell id="fDUWHi4UE-YvZa-yy9O_-122" value="&lt;span style=&quot;border-bottom: 1px dotted&quot;&gt;fnev&lt;/span&gt;" style="ellipse;whiteSpace=wrap;html=1;align=center;" vertex="1" parent="1">
          <mxGeometry x="359" y="850" width="100" height="40" as="geometry" />
        </mxCell>
        <mxCell id="fDUWHi4UE-YvZa-yy9O_-125" value="" style="endArrow=none;html=1;rounded=0;exitX=0.5;exitY=0;exitDx=0;exitDy=0;entryX=0.5;entryY=1;entryDx=0;entryDy=0;" edge="1" parent="1" source="fDUWHi4UE-YvZa-yy9O_-132" target="fDUWHi4UE-YvZa-yy9O_-1">
          <mxGeometry width="50" height="50" relative="1" as="geometry">
            <mxPoint x="290" y="410" as="sourcePoint" />
            <mxPoint x="300" y="270" as="targetPoint" />
          </mxGeometry>
        </mxCell>
        <mxCell id="fDUWHi4UE-YvZa-yy9O_-126" value="" style="endArrow=none;html=1;rounded=0;exitX=1;exitY=0.5;exitDx=0;exitDy=0;entryX=0;entryY=0.5;entryDx=0;entryDy=0;" edge="1" parent="1" source="fDUWHi4UE-YvZa-yy9O_-130" target="fDUWHi4UE-YvZa-yy9O_-91">
          <mxGeometry width="50" height="50" relative="1" as="geometry">
            <mxPoint x="530" y="410" as="sourcePoint" />
            <mxPoint x="700" y="470" as="targetPoint" />
          </mxGeometry>
        </mxCell>
        <mxCell id="fDUWHi4UE-YvZa-yy9O_-127" value="" style="endArrow=none;html=1;rounded=0;entryX=0;entryY=0.5;entryDx=0;entryDy=0;exitX=1;exitY=0.5;exitDx=0;exitDy=0;" edge="1" parent="1" source="fDUWHi4UE-YvZa-yy9O_-111" target="fDUWHi4UE-YvZa-yy9O_-130">
          <mxGeometry width="50" height="50" relative="1" as="geometry">
            <mxPoint x="650" y="520" as="sourcePoint" />
            <mxPoint x="530" y="470" as="targetPoint" />
          </mxGeometry>
        </mxCell>
        <mxCell id="fDUWHi4UE-YvZa-yy9O_-128" value="" style="endArrow=none;html=1;rounded=0;exitX=0.5;exitY=1;exitDx=0;exitDy=0;entryX=0.5;entryY=0;entryDx=0;entryDy=0;" edge="1" parent="1" source="fDUWHi4UE-YvZa-yy9O_-132" target="fDUWHi4UE-YvZa-yy9O_-111">
          <mxGeometry width="50" height="50" relative="1" as="geometry">
            <mxPoint x="290" y="470" as="sourcePoint" />
            <mxPoint x="700" y="470" as="targetPoint" />
          </mxGeometry>
        </mxCell>
        <mxCell id="fDUWHi4UE-YvZa-yy9O_-130" value="felhasználói &lt;br&gt;adatok" style="shape=rhombus;perimeter=rhombusPerimeter;whiteSpace=wrap;html=1;align=center;" vertex="1" parent="1">
          <mxGeometry x="640" y="590" width="120" height="60" as="geometry" />
        </mxCell>
        <mxCell id="fDUWHi4UE-YvZa-yy9O_-132" value="felhasználói &lt;br&gt;adatok" style="shape=rhombus;perimeter=rhombusPerimeter;whiteSpace=wrap;html=1;align=center;" vertex="1" parent="1">
          <mxGeometry x="290" y="390" width="120" height="60" as="geometry" />
        </mxCell>
        <mxCell id="fDUWHi4UE-YvZa-yy9O_-133" value="felhasználó" style="shape=rhombus;perimeter=rhombusPerimeter;whiteSpace=wrap;html=1;align=center;" vertex="1" parent="1">
          <mxGeometry x="380" y="130" width="120" height="60" as="geometry" />
        </mxCell>
        <mxCell id="fDUWHi4UE-YvZa-yy9O_-134" value="felhasználói&lt;br&gt;adatok" style="shape=rhombus;perimeter=rhombusPerimeter;whiteSpace=wrap;html=1;align=center;" vertex="1" parent="1">
          <mxGeometry x="610" y="440" width="120" height="60" as="geometry" />
        </mxCell>
        <mxCell id="fDUWHi4UE-YvZa-yy9O_-135" value="" style="endArrow=none;html=1;rounded=0;exitX=1;exitY=1;exitDx=0;exitDy=0;entryX=0;entryY=0.5;entryDx=0;entryDy=0;" edge="1" parent="1" source="fDUWHi4UE-YvZa-yy9O_-1" target="fDUWHi4UE-YvZa-yy9O_-134">
          <mxGeometry width="50" height="50" relative="1" as="geometry">
            <mxPoint x="564" y="430" as="sourcePoint" />
            <mxPoint x="614" y="380" as="targetPoint" />
          </mxGeometry>
        </mxCell>
        <mxCell id="fDUWHi4UE-YvZa-yy9O_-136" value="" style="endArrow=none;html=1;rounded=0;exitX=1;exitY=0.5;exitDx=0;exitDy=0;entryX=0;entryY=0.5;entryDx=0;entryDy=0;" edge="1" parent="1" source="fDUWHi4UE-YvZa-yy9O_-134" target="fDUWHi4UE-YvZa-yy9O_-91">
          <mxGeometry width="50" height="50" relative="1" as="geometry">
            <mxPoint x="760" y="520" as="sourcePoint" />
            <mxPoint x="810" y="470" as="targetPoint" />
          </mxGeometry>
        </mxCell>
        <mxCell id="fDUWHi4UE-YvZa-yy9O_-142" style="edgeStyle=orthogonalEdgeStyle;rounded=0;orthogonalLoop=1;jettySize=auto;html=1;exitX=1;exitY=0.5;exitDx=0;exitDy=0;entryX=0.102;entryY=0.019;entryDx=0;entryDy=0;entryPerimeter=0;" edge="1" parent="1">
          <mxGeometry relative="1" as="geometry">
            <mxPoint x="120" y="219.24" as="sourcePoint" />
            <mxPoint x="1046.2199999999998" y="700" as="targetPoint" />
          </mxGeometry>
        </mxCell>
        <mxCell id="fDUWHi4UE-YvZa-yy9O_-143" value="&lt;span style=&quot;border-bottom: 1px dotted&quot;&gt;fnev&lt;/span&gt;" style="ellipse;whiteSpace=wrap;html=1;align=center;" vertex="1" parent="1">
          <mxGeometry x="740" y="30" width="100" height="40" as="geometry" />
        </mxCell>
        <mxCell id="fDUWHi4UE-YvZa-yy9O_-145" value="Rendelés elemei" style="whiteSpace=wrap;html=1;align=center;" vertex="1" parent="1">
          <mxGeometry x="1250" y="130" width="100" height="40" as="geometry" />
        </mxCell>
        <mxCell id="fDUWHi4UE-YvZa-yy9O_-147" value="&lt;u&gt;rendelés ID&lt;/u&gt;" style="ellipse;whiteSpace=wrap;html=1;" vertex="1" parent="1">
          <mxGeometry x="1410" y="10" width="100" height="40" as="geometry" />
        </mxCell>
        <mxCell id="fDUWHi4UE-YvZa-yy9O_-148" value="" style="endArrow=none;html=1;rounded=0;exitX=1;exitY=0;exitDx=0;exitDy=0;entryX=0.5;entryY=1;entryDx=0;entryDy=0;" edge="1" parent="1" target="fDUWHi4UE-YvZa-yy9O_-147" source="fDUWHi4UE-YvZa-yy9O_-145">
          <mxGeometry width="50" height="50" relative="1" as="geometry">
            <mxPoint x="1425" y="150" as="sourcePoint" />
            <mxPoint x="1430" y="70" as="targetPoint" />
          </mxGeometry>
        </mxCell>
        <mxCell id="fDUWHi4UE-YvZa-yy9O_-149" value="" style="endArrow=none;html=1;rounded=0;exitX=0;exitY=0;exitDx=0;exitDy=0;entryX=0.5;entryY=1;entryDx=0;entryDy=0;" edge="1" parent="1" target="fDUWHi4UE-YvZa-yy9O_-150" source="fDUWHi4UE-YvZa-yy9O_-145">
          <mxGeometry width="50" height="50" relative="1" as="geometry">
            <mxPoint x="1264" y="120" as="sourcePoint" />
            <mxPoint x="1225" y="20" as="targetPoint" />
          </mxGeometry>
        </mxCell>
        <mxCell id="fDUWHi4UE-YvZa-yy9O_-150" value="&lt;u&gt;termek ID&lt;/u&gt;" style="ellipse;whiteSpace=wrap;html=1;align=center;" vertex="1" parent="1">
          <mxGeometry x="1075" y="10" width="100" height="40" as="geometry" />
        </mxCell>
        <mxCell id="fDUWHi4UE-YvZa-yy9O_-151" value="darab" style="ellipse;whiteSpace=wrap;html=1;align=center;" vertex="1" parent="1">
          <mxGeometry x="1490" y="130" width="100" height="40" as="geometry" />
        </mxCell>
        <mxCell id="fDUWHi4UE-YvZa-yy9O_-152" value="" style="endArrow=none;html=1;rounded=0;entryX=1;entryY=0.5;entryDx=0;entryDy=0;exitX=0;exitY=0.5;exitDx=0;exitDy=0;" edge="1" parent="1" source="fDUWHi4UE-YvZa-yy9O_-151" target="fDUWHi4UE-YvZa-yy9O_-145">
          <mxGeometry width="50" height="50" relative="1" as="geometry">
            <mxPoint x="1490" y="150" as="sourcePoint" />
            <mxPoint x="1360" y="150" as="targetPoint" />
          </mxGeometry>
        </mxCell>
        <mxCell id="fDUWHi4UE-YvZa-yy9O_-154" value="rendelés" style="shape=rhombus;perimeter=rhombusPerimeter;whiteSpace=wrap;html=1;align=center;" vertex="1" parent="1">
          <mxGeometry x="997" y="100" width="120" height="60" as="geometry" />
        </mxCell>
        <mxCell id="fDUWHi4UE-YvZa-yy9O_-155" value="" style="endArrow=none;html=1;rounded=0;exitX=1;exitY=0.5;exitDx=0;exitDy=0;entryX=0;entryY=0.5;entryDx=0;entryDy=0;" edge="1" parent="1" source="fDUWHi4UE-YvZa-yy9O_-16" target="fDUWHi4UE-YvZa-yy9O_-154">
          <mxGeometry width="50" height="50" relative="1" as="geometry">
            <mxPoint x="960" y="240" as="sourcePoint" />
            <mxPoint x="1010" y="190" as="targetPoint" />
          </mxGeometry>
        </mxCell>
        <mxCell id="fDUWHi4UE-YvZa-yy9O_-156" value="" style="endArrow=none;html=1;rounded=0;entryX=1;entryY=0.5;entryDx=0;entryDy=0;exitX=0;exitY=0.5;exitDx=0;exitDy=0;" edge="1" parent="1" source="fDUWHi4UE-YvZa-yy9O_-145" target="fDUWHi4UE-YvZa-yy9O_-154">
          <mxGeometry width="50" height="50" relative="1" as="geometry">
            <mxPoint x="960" y="240" as="sourcePoint" />
            <mxPoint x="1010" y="190" as="targetPoint" />
          </mxGeometry>
        </mxCell>
      </root>
    </mxGraphModel>
  </diagram>
</mxfile>
